/* XPM */
static char *controlCenter_xpm[] = {
/* columns rows colors chars-per-pixel */
"16 16 55 1",
"  c #000000",
". c #090909",
"X c #1b1c15",
"o c #1e221c",
"O c #201411",
"+ c #2c1c18",
"@ c #2c2618",
"# c #272b27",
"$ c #2c2c21",
"% c #2b2e28",
"& c #373d34",
"* c #37393c",
"= c #3b3d33",
"- c #3d443b",
"; c #643535",
": c #454937",
"> c #4b5144",
", c #4f574a",
"< c #564f41",
"1 c #505440",
"2 c #565e51",
"3 c #5f6857",
"4 c #605f6c",
"5 c #626c5c",
"6 c #75605c",
"7 c #646d64",
"8 c #696968",
"9 c #636370",
"0 c #6b7363",
"q c #6f7968",
"w c #746c69",
"e c #727d6b",
"r c #707973",
"t c #75816e",
"y c #798572",
"u c #7d8975",
"i c #916b6b",
"p c #808c78",
"a c #898e84",
"s c #869286",
"d c #8a9582",
"f c #909b8a",
"g c #989990",
"h c #94a098",
"j c #b98c8e",
"k c #a1aa9c",
"l c #bdb4a6",
"z c #bcc2b9",
"x c #c6ae8d",
"c c #ccb08c",
"v c #dcdfda",
"b c #dce0dd",
"n c #e1cbcb",
"m c #f0f1ee",
"M c None",
/* pixels */
"MMMMMMMMMMMMMMMM",
"MMMMMMMMMMMMMMMM",
"MMMMMMMMMw+MMMMM",
"MMMMMMMMMM+MMMMM",
"MMMbe%.MMMOM MMM",
"MMMfz2......-hrM",
"MMmupp@@ni=s7#bc",
"MMuuppu$j;9*a<x ",
"Mkpppppu6;4l80<M",
"M0uppppp5gq111MM",
"MMuuppppu111,: M",
"MMupppfuu111@   ",
"MMe00yut5::.  MM",
"MM --,eq-$  MMMM",
"MMMMMMMq:  MMMMM",
"MMMMMMMMMMMMMMMM"
};
