/* XPM */
static const char * fileopen_xpm[] = {
"16 13 6 1",
" 	c None",
".	c #040404",
"+	c #000000",
"@	c #F3F704",
"#	c #F3F7F3",
"$	c #808304",
"         ...    ",
"        +   . + ",
"             .. ",
" ...        ... ",
".@#@.......     ",
".#@#@#@#@#.     ",
".@#@#@#@#@.     ",
".#@#@..........+",
".@#@.$$$$$$$$$+ ",
".#@.$$$$$$$$$.  ",
".@.$$$$$$$$$.   ",
"..$$$$$$$$$.    ",
"...........     "};
